# xmcd
#
# Track frame offsets:
#	150
#	16892
#	29449
#	39328
#	53850
#	67633
#	85995
#	101401
#	117107
#	131991
#	150107
#	165069
#
# Disc length: 2372 seconds
#
# Revision: 0
# Processed by: cddbd v1.5.2PL0 Copyright (c) Steve Scherf et al.
# Submitted via: EasyCDDAExtractor 2010.6.0.0
#
DISCID=7f09420c
DTITLE=Ken Mullan - The Best Of Vol 2
DYEAR=1900
DGENRE=country
TTITLE0=I wonder Where You Are Tonight
TTITLE1=Me Eileen Is Waiting For Me
TTITLE2=I'll Step Down
TTITLE3=When My Blue Moon Turns To Gold Again
TTITLE4=For All I Know
TTITLE5=Shifting Sands
TTITLE6=Some Days Are Diamonds
TTITLE7=Springtime In The Rockies
TTITLE8=Don't Trade Your Love For Gold
TTITLE9=If Those Lips Could Only Speak
TTITLE10=Country Roads
TTITLE11=Daar Is Niks Soos Ware Liefde
EXTD=
EXTT0=
EXTT1=
EXTT2=
EXTT3=
EXTT4=
EXTT5=
EXTT6=
EXTT7=
EXTT8=
EXTT9=
EXTT10=
EXTT11=
PLAYORDER=
